 <svg  version="1.0" xmlns="http://www.w3.org/2000/svg"  width="500.000000pt" height="500.000000pt" viewBox="0 0 500.000000 500.000000"  preserveAspectRatio="xMidYMid meet">  <g transform="translate(0.000000,500.000000) scale(0.100000,-0.100000)" fill="#840000" stroke="none"> <path d="M1795 3635 c-77 -8 -192 -21 -256 -30 -65 -9 -123 -14 -130 -13 -11 2 -15 -24 -17 -127 -2 -71 0 -167 3 -212 l7 -83 34 0 33 0 -5 158 c-5 124 -3 161 7 175 11 13 42 20 134 30 l120 14 -72 8 c-40 4 -73 11 -73 15 0 3 21 12 48 19 96 26 233 40 440 47 l214 7 -4 -29 -3 -29 -214 -7 c-117 -4 -215 -9 -217 -11 -3 -2 139 -2 314 1 332 5 498 -3 817 -38 49 -6 93 -14 97 -18 4 -4 8 -56 9 -114 l1 -107 30 -6 c16 -4 31 -5 33 -3 2 1 5 74 7 160 3 147 2 157 -15 152 -9 -3 -77 2 -150 10 -72 9 -175 21 -227 27 -154 18 -800 20 -965 4z m625 -5 c-23 -5 0 -7 68 -6 56 1 102 -1 102 -4 0 -4 39 -10 88 -14 158 -13 187 -17 194 -24 5 -5 -2 -8 -15 -8 -12 -1 -49 -4 -81 -9 -41 -5 -57 -4 -52 3 10 17 -74 26 -251 26 -121 1 -164 4 -168 14 -2 6 1 12 8 12 8 0 6 4 -3 10 -10 7 10 9 65 9 63 -1 73 -3 45 -9z m68 -47 c-10 -2 -28 -2 -40 0 -13 2 -5 4 17 4 22 1 32 -1 23 -4z m-1029 -49 c-13 -14 -25 -20 -27 -14 -7 20 7 40 29 40 l22 0 -24 -26z m1659 -3 l4 -23 -31 23 c-38 28 -38 31 -3 26 19 -3 28 -10 30 -26z"/> <path d="M1753 3553 c15 -2 37 -2 50 0 12 2 0 4 -28 4 -27 0 -38 -2 -22 -4z"/> <path d="M1705 3524 c-49 -7 -118 -18 -152 -25 l-62 -11 -3 -112 c-2 -61 -1 -115 1 -120 9 -21 21 25 21 85 0 113 5 124 59 137 25 6 101 18 169 28 67 9 122 21 122 26 0 11 -47 9 -155 -8z"/> <path d="M2710 3531 c0 -11 24 -16 135 -31 44 -5 103 -15 131 -21 l52 -12 7 -65 c12 -110 26 -119 20 -13 -3 52 -7 96 -9 98 -4 5 -301 53 -323 53 -7 0 -13 -4 -13 -9z"/> <path d="M2145 3329 c-104 -10 -284 -58 -499 -133 -100 -35 -181 -57 -242 -65 -49 -6 -126 -20 -170 -31 -88 -23 -246 -97 -253 -119 -3 -10 10 -6 40 11 132 76 300 109 596 115 239 6 299 23 80 23 l-132 0 115 40 c63 22 175 58 248 80 295 88 575 78 1251 -46 134 -24 253 -44 263 -44 11 0 18 -5 16 -12 -5 -14 -306 -46 -445 -47 -45 -1 -85 -5 -88 -11 -4 -6 12 -10 42 -10 l48 0 -38 -27 c-20 -14 -37 -30 -37 -35 0 -12 6 -10 46 17 87 59 202 58 282 -2 18 -14 36 -22 39 -19 10 10 -21 39 -60 56 l-39 17 34 6 c18 4 71 7 117 8 l85 2 -3 -63 c-3 -80 15 -72 25 11 6 57 30 99 56 99 4 0 8 4 8 9 0 8 -114 34 -300 67 -52 10 -202 38 -332 64 -131 25 -241 43 -246 38 -4 -4 -64 -3 -132 2 -145 11 -249 11 -375 -1z"/> <path d="M2115 3269 c-91 -12 -178 -31 -195 -41 -10 -6 -5 -7 15 -4 144 24 209 30 335 30 163 0 273 -15 330 -44 49 -25 62 -25 30 -1 -24 19 -24 19 30 6 30 -7 75 -18 100 -26 l45 -13 -115 -8 c-167 -11 -410 -51 -410 -68 0 -3 39 -1 88 6 75 11 231 22 732 51 139 8 104 21 -58 22 -103 1 -143 6 -245 32 -242 61 -502 83 -682 58z m313 -6 c-10 -2 -26 -2 -35 0 -10 3 -2 5 17 5 19 0 27 -2 18 -5z m447 -83 l70 -19 -57 0 c-32 -1 -58 3 -58 8 0 5 -12 14 -27 19 -46 17 -2 12 72 -8z m-88 -27 c-20 -2 -52 -2 -70 0 -17 2 0 4 38 4 39 0 53 -2 32 -4z m-144 -10 c-13 -2 -33 -2 -45 0 -13 2 -3 4 22 4 25 0 35 -2 23 -4z"/> <path d="M2661 3098 c10 -19 7 -25 -27 -53 -38 -32 -39 -32 -178 -38 -78 -4 -217 -7 -311 -8 -93 -1 -183 -5 -200 -9 -16 -4 157 -8 385 -9 259 -1 410 3 405 8 -12 12 -113 16 -140 6 -17 -6 -17 -5 3 9 12 10 26 15 30 12 5 -3 23 9 40 27 30 31 31 34 16 55 -20 29 -39 29 -23 0z"/> <path d="M1379 3071 c-59 -19 -119 -63 -119 -89 0 -9 15 -1 39 21 84 76 226 71 313 -11 15 -14 30 -23 33 -20 11 11 -38 58 -87 82 -53 27 -124 33 -179 17z"/> <path d="M1247 2778 c-15 -90 -27 -174 -27 -186 0 -15 -7 -26 -20 -29 -11 -3 -20 -8 -20 -12 0 -8 118 -6 127 2 3 4 -3 7 -15 7 -11 0 -23 4 -27 9 -3 5 1 52 10 103 8 51 15 98 15 103 0 6 13 -18 30 -53 19 -41 34 -61 41 -56 8 4 9 3 5 -4 -7 -12 39 -112 52 -112 4 0 35 54 67 121 33 66 61 115 62 107 1 -7 7 -56 14 -108 7 -52 12 -101 11 -107 -2 -9 9 -13 31 -13 19 0 49 -3 66 -6 20 -4 31 -3 31 5 0 6 -8 11 -19 11 -30 0 -38 19 -55 140 -25 173 -37 240 -45 240 -14 0 -143 -278 -136 -292 6 -9 5 -10 -3 -3 -6 6 -42 74 -81 153 -39 78 -74 142 -79 142 -5 0 -20 -73 -35 -162z m78 60 c5 4 5 1 1 -5 -4 -7 -4 -13 1 -13 8 0 23 -28 77 -137 30 -60 18 -80 -17 -28 -13 19 -26 33 -29 30 -2 -3 -17 22 -33 55 -16 33 -32 60 -36 60 -4 0 -10 -25 -14 -55 -9 -77 -30 -73 -22 5 7 63 32 107 52 90 7 -6 16 -6 20 -2z m284 -93 c11 -65 10 -77 -3 -91 -15 -14 -17 -13 -26 11 -5 14 -13 51 -16 81 -4 30 -10 56 -13 59 -4 2 -19 -20 -34 -48 -15 -29 -37 -63 -48 -77 -20 -24 -20 -24 1 20 38 80 63 125 79 137 27 20 47 -11 60 -92z"/> <path d="M2186 2925 c-57 -20 -87 -45 -113 -95 -28 -53 -30 -120 -4 -175 73 -158 307 -152 382 10 50 108 -2 227 -115 260 -61 18 -99 18 -150 0z m143 -44 c58 -41 78 -180 37 -259 -39 -76 -169 -63 -213 22 -21 41 -28 144 -13 190 24 74 118 97 189 47z m102 -57 c31 -33 34 -111 5 -143 -11 -12 -23 -21 -28 -21 -4 0 -8 29 -8 64 0 36 -4 76 -9 89 -17 43 4 49 40 11z m-309 -71 c0 -43 0 -86 0 -96 -1 -11 2 -16 10 -11 7 5 8 3 3 -6 -6 -10 -14 -7 -31 13 -12 14 -24 23 -27 20 -10 -9 -20 66 -13 99 6 28 30 57 49 58 4 0 8 -35 9 -77z"/> <path d="M2867 2933 c-8 -14 -19 -73 -13 -73 3 0 15 9 26 20 15 15 33 20 71 20 l52 0 -7 -31 c-3 -17 -6 -92 -6 -166 0 -129 -1 -134 -22 -143 -29 -11 -29 -11 65 -13 44 -1 81 1 84 5 2 5 -4 8 -14 8 -39 0 -43 18 -43 183 l0 160 52 -5 c31 -3 56 -12 63 -22 18 -24 25 -19 25 19 l0 35 -149 0 c-82 0 -156 3 -164 6 -8 3 -17 2 -20 -3z m182 -183 c0 -74 -18 -126 -34 -100 -10 16 -11 149 -2 184 8 27 9 27 22 10 9 -13 14 -45 14 -94z"/> <path d="M3315 2925 c-43 -22 -55 -43 -55 -93 0 -42 4 -48 71 -112 55 -52 72 -74 72 -96 0 -34 -26 -54 -69 -54 -35 0 -64 28 -64 62 0 10 -4 18 -10 18 -5 0 -10 -20 -10 -45 0 -52 16 -65 83 -65 84 0 146 71 126 145 -5 18 -37 57 -79 96 -38 37 -70 73 -70 81 0 22 33 48 61 48 32 0 46 -10 58 -43 15 -39 27 -27 23 21 -3 31 -9 42 -25 46 -38 10 -81 6 -112 -9z m-10 -95 c-2 -3 24 -25 57 -50 33 -24 67 -59 76 -77 31 -66 -9 -54 -101 30 -61 56 -83 103 -48 103 11 0 18 -3 16 -6z"/> <path d="M998 2920 c22 -9 22 -12 22 -180 0 -168 0 -171 -22 -180 -29 -11 -29 -11 65 -13 44 -1 81 1 84 5 2 5 -7 8 -21 8 -35 0 -37 16 -34 195 3 148 3 150 28 162 22 11 15 13 -60 12 -61 0 -79 -3 -62 -9z m82 -170 c0 -78 -18 -128 -35 -100 -10 17 -10 184 0 200 17 28 35 -23 35 -100z"/> <path d="M1735 2923 c11 -3 25 -9 30 -13 9 -7 12 -182 6 -323 -1 -10 -11 -22 -23 -27 -29 -11 -29 -11 65 -13 44 -1 81 1 84 5 2 5 -5 8 -16 8 -11 0 -22 3 -24 8 -3 4 -6 81 -8 172 l-4 165 25 -3 c32 -3 70 -46 70 -78 0 -37 -28 -84 -50 -84 -21 0 -35 -16 -21 -24 18 -12 70 7 100 36 36 35 47 79 31 119 -20 48 -55 59 -177 58 -59 -1 -99 -4 -88 -6z m95 -178 c0 -67 -4 -96 -14 -104 -12 -10 -15 -4 -21 31 -9 52 -9 116 0 158 6 25 9 29 21 19 10 -8 14 -37 14 -104z m154 80 c8 -30 -5 -58 -36 -79 -34 -24 -41 -19 -18 12 12 16 23 41 25 58 2 16 4 30 4 32 4 12 20 -3 25 -23z"/> <path d="M2540 2917 c24 -12 24 -12 23 -165 -1 -199 -1 -192 -18 -192 -8 0 -15 -3 -15 -7 0 -5 34 -8 75 -8 41 0 75 3 75 8 0 4 -9 7 -19 7 -24 0 -31 19 -31 86 0 53 1 54 28 54 23 0 36 -11 70 -60 51 -72 72 -86 135 -93 53 -5 73 8 27 18 -18 4 -44 23 -65 50 -21 25 -43 42 -53 40 -9 -1 -33 11 -53 26 -21 17 -49 29 -66 29 -24 0 -31 -6 -38 -31 -6 -17 -14 -32 -20 -32 -11 -2 -19 154 -10 192 10 38 29 9 35 -52 4 -45 8 -53 33 -61 38 -14 78 17 92 72 13 54 21 59 29 21 5 -27 1 -38 -21 -61 -26 -28 -27 -29 -10 -57 9 -15 14 -30 12 -33 -3 -3 2 -5 10 -5 19 0 19 4 -5 34 l-20 25 25 29 c30 36 42 92 26 125 -17 39 -68 54 -178 54 -85 0 -95 -2 -73 -13z m170 -37 c36 -36 22 -135 -20 -140 -58 -8 -60 -5 -60 80 l0 80 30 0 c17 0 39 -9 50 -20z"/> <path d="M1644 2464 c3 -9 6 -35 6 -59 0 -51 19 -75 59 -75 41 0 59 27 62 90 3 48 1 55 -15 55 -16 0 -19 -9 -20 -60 -1 -54 -3 -60 -23 -63 -27 -4 -38 29 -30 89 3 21 1 39 -3 39 -5 0 -11 -26 -13 -57 l-3 -58 -2 58 c-1 34 -6 57 -13 57 -6 0 -8 -7 -5 -16z"/> <path d="M1810 2423 c0 -34 -3 -68 -6 -77 -4 -11 0 -16 13 -16 16 0 18 7 17 51 -1 28 -5 53 -8 56 -3 4 -6 10 -6 15 0 5 12 -5 28 -23 15 -18 26 -37 24 -42 -3 -11 37 -57 49 -57 4 0 9 31 11 70 2 55 0 70 -12 73 -12 3 -15 -7 -15 -50 0 -29 3 -53 8 -53 4 0 7 -5 7 -12 0 -6 -9 -3 -20 7 -12 11 -16 21 -10 25 5 3 -10 26 -35 50 l-45 44 0 -61z"/> <path d="M1975 2403 l0 -73 43 0 c29 0 42 4 42 14 0 9 -8 12 -26 8 l-27 -5 5 65 c4 61 2 66 -17 64 -18 -1 -20 -8 -20 -73z m22 -35 c-2 -18 -4 -4 -4 32 0 36 2 50 4 33 2 -18 2 -48 0 -65z"/> <path d="M2085 2403 c0 -63 2 -73 18 -73 14 0 17 10 17 65 0 77 -1 79 -20 80 -12 1 -15 -13 -15 -72z m22 -35 c-2 -18 -4 -4 -4 32 0 36 2 50 4 33 2 -18 2 -48 0 -65z"/> <path d="M2175 2468 c-2 -7 -6 -35 -10 -62 -4 -27 -9 -55 -12 -62 -3 -8 1 -14 10 -14 11 0 17 12 19 38 l3 37 20 -37 c10 -21 22 -38 26 -38 9 0 30 60 21 60 -4 0 1 5 11 11 9 6 15 14 12 20 -4 5 -3 15 2 22 8 13 21 -29 21 -73 0 -22 -1 -22 -8 5 -8 30 -8 30 -9 -7 -1 -32 2 -38 20 -38 15 0 19 5 15 18 -2 9 -8 41 -11 70 -4 29 -12 52 -18 52 -12 0 -54 -88 -49 -102 1 -5 -3 -8 -9 -8 -6 0 -9 7 -5 15 5 14 -29 105 -40 105 -2 0 -6 -6 -9 -12z m41 -85 c-4 -4 -9 3 -13 15 -3 12 -9 22 -14 22 -5 0 -9 8 -9 18 0 11 7 6 21 -16 12 -18 19 -36 15 -39z"/> <path d="M2347 2474 c-1 -1 -1 -34 1 -73 3 -62 6 -71 23 -71 17 0 19 8 19 73 0 67 -2 73 -20 73 -12 0 -22 -1 -23 -2z m20 -106 c-2 -18 -4 -4 -4 32 0 36 2 50 4 33 2 -18 2 -48 0 -65z"/> <path d="M2410 2461 c0 -19 3 -20 20 -11 27 14 34 -4 28 -70 -5 -46 -3 -50 16 -50 21 0 22 4 18 65 -5 68 -3 72 30 54 16 -9 19 -8 16 6 -1 9 -6 16 -10 16 -5 -1 -17 -1 -28 -1 -17 0 -20 -8 -23 -67 l-3 -68 -2 68 c-2 50 -6 67 -16 67 -8 0 -21 3 -30 6 -12 4 -16 0 -16 -15z"/> <path d="M2555 2405 l0 -75 41 0 c28 0 44 5 48 15 4 12 -1 15 -22 13 -22 -2 -28 1 -30 21 -3 21 -1 23 22 17 19 -5 26 -3 26 9 0 9 -9 15 -25 15 -15 0 -25 6 -25 14 0 22 19 30 35 16 12 -10 15 -9 15 9 0 13 -6 21 -17 21 -35 0 -42 -14 -40 -78 1 -34 -1 -62 -5 -62 -5 0 -8 32 -8 70 0 39 -3 70 -7 70 -5 0 -8 -34 -8 -75z"/> <path d="M2668 2475 c-2 -2 -2 -35 0 -74 l4 -71 47 0 c57 0 91 29 91 77 0 42 -29 65 -89 68 -28 1 -51 1 -53 0z m123 -36 c5 -8 8 -25 7 -39 -1 -25 -1 -25 -5 2 -2 14 -12 32 -21 40 -13 11 -14 11 -8 -1 13 -20 25 -82 16 -76 -5 3 -11 1 -15 -5 -3 -5 -17 -10 -30 -10 -21 0 -24 5 -28 48 l-3 47 -2 -53 c-1 -29 -5 -51 -9 -49 -5 3 -6 30 -5 60 l4 54 45 -2 c25 -2 49 -9 54 -16z"/> <path d="M1242 2423 c-89 -2 -141 -7 -137 -13 4 -6 105 -10 256 -10 215 0 249 2 249 15 0 16 12 16 -368 8z"/> <path d="M2860 2417 c0 -15 24 -17 249 -17 156 0 252 4 256 10 4 6 -26 10 -83 10 -49 0 -164 3 -255 7 -151 6 -167 5 -167 -10z"/> <path d="M1741 2263 c121 -159 341 -337 495 -403 l41 -18 73 40 c132 71 223 141 350 268 l125 125 -41 3 c-39 3 -43 0 -130 -88 -49 -50 -89 -100 -89 -110 0 -10 -13 -29 -30 -41 -16 -13 -32 -26 -35 -29 -3 -3 -27 -22 -55 -41 -27 -18 -52 -36 -55 -39 -9 -10 -68 -50 -74 -50 -3 0 -10 9 -16 20 -9 17 -4 23 47 49 32 16 67 37 78 45 11 9 -18 -4 -64 -28 l-85 -45 -50 26 c-106 53 -222 138 -321 234 -92 90 -105 99 -140 99 -34 0 -36 -2 -24 -17z m145 -81 c96 -93 229 -189 332 -241 51 -26 62 -36 62 -56 0 -33 -11 -32 -89 12 -142 78 -371 263 -371 299 0 9 -5 12 -12 8 -7 -4 -10 -4 -6 1 4 4 -2 21 -13 36 -41 57 6 29 97 -59z"/> <path d="M2495 2094 c-44 -30 -113 -71 -153 -90 l-72 -34 -63 31 c-34 18 -95 54 -135 81 -76 51 -106 60 -53 15 41 -34 192 -125 230 -138 35 -12 78 6 208 90 66 42 138 102 122 101 -2 0 -40 -25 -84 -56z"/> <path d="M2512 2062 c-32 -26 -32 -28 -10 -29 18 -2 19 0 8 7 -13 9 -13 10 0 11 8 1 19 1 23 0 5 -1 5 4 1 10 -5 8 -2 10 8 7 9 -4 15 0 15 8 0 20 -7 17 -45 -14z"/> </g> </svg> 